<?xml version="1.0" standalone="no"?>
<!DOCTYPE svg PUBLIC "-//W3C//DTD SVG 20010904//EN"
 "http://www.w3.org/TR/2001/REC-SVG-20010904/DTD/svg10.dtd">
<svg version="1.0" xmlns="http://www.w3.org/2000/svg"
 width="320.000000pt" height="85.000000pt" viewBox="0 0 320.000000 85.000000"
 preserveAspectRatio="xMidYMid meet">
<metadata>
Created by potrace 1.11, written by Peter Selinger 2001-2013
</metadata>
<g transform="translate(0.000000,85.000000) scale(0.100000,-0.100000)"
fill="#000000" stroke="none">
<path d="M387 706 c-154 -56 -233 -217 -181 -369 27 -80 135 -178 195 -177 8
0 -4 9 -26 19 -106 49 -159 190 -105 279 11 18 20 44 20 58 0 66 68 146 137
161 21 4 565 8 1208 8 l1170 0 48 -24 c54 -26 91 -75 102 -134 3 -21 15 -53
26 -70 53 -88 0 -229 -106 -278 -22 -10 -34 -19 -26 -19 31 0 103 44 140 87
79 89 93 217 35 323 -31 57 -65 89 -128 123 l-41 22 -1215 2 c-1004 2 -1222 0
-1253 -11z"/>
<path d="M441 600 c-18 -4 -41 -16 -50 -25 -15 -16 -14 -17 14 -11 17 3 57 9
91 12 l60 7 19 -62 c10 -34 21 -58 24 -55 3 3 13 24 23 47 l16 42 22 -50 22
-50 19 63 c11 34 23 62 27 62 25 -1 34 -21 31 -69 l-4 -51 38 0 c29 0 37 4 36
18 0 10 -3 12 -6 5 -2 -7 -13 -13 -24 -13 -14 0 -19 7 -19 26 0 21 4 25 20 21
11 -3 20 -1 20 4 0 5 -9 9 -20 9 -14 0 -20 7 -20 21 0 16 5 20 20 16 10 -3 21
0 22 5 2 6 13 8 27 3 21 -6 22 -12 19 -61 -3 -53 -2 -54 23 -54 33 0 54 23 43
47 -11 26 -11 73 1 73 28 -1 37 -19 34 -69 -4 -49 -3 -51 22 -51 33 0 54 23
43 47 -13 32 -10 73 6 73 33 0 42 -17 39 -69 -4 -49 -3 -51 21 -50 14 0 19 3
13 6 -16 6 -18 103 -3 103 17 0 23 -29 10 -45 -7 -8 -8 -15 -2 -15 5 0 15 7
23 16 10 12 10 20 1 35 -10 15 -9 19 0 19 31 -1 40 -18 37 -69 -3 -42 -1 -51
12 -51 12 0 15 7 11 25 -2 14 0 25 6 25 5 0 17 -11 26 -25 9 -14 24 -25 33
-25 13 0 11 6 -9 28 -21 21 -25 31 -17 45 8 13 7 22 -1 33 -11 12 -6 14 26 14
49 0 105 -16 116 -32 24 -39 -4 -85 -47 -74 -29 7 -44 50 -26 78 6 10 7 18 1
18 -12 0 -30 -33 -30 -54 0 -24 37 -56 65 -56 31 0 65 33 65 62 0 12 -8 30
-17 41 -18 20 -17 20 51 14 37 -4 75 -12 82 -18 11 -9 14 -8 14 5 0 17 17 21
39 7 9 -6 12 -24 10 -60 -3 -42 -1 -51 12 -51 12 0 15 7 11 25 -6 32 11 32 32
0 20 -30 65 -35 62 -8 -2 27 44 30 51 4 4 -16 13 -21 42 -21 l37 0 -3 43 -4
42 24 -44 24 -43 13 31 c16 39 30 40 30 1 0 -27 3 -30 33 -30 32 0 32 1 30 43
l-4 42 24 -44 24 -43 13 31 c16 39 30 40 30 1 0 -24 4 -30 23 -30 13 0 17 3
10 8 -6 4 -15 31 -19 60 -6 47 -5 52 12 52 37 0 46 -15 43 -69 l-4 -51 38 0
c29 0 37 4 36 18 0 10 -3 12 -6 5 -2 -7 -13 -13 -24 -13 -14 0 -19 7 -19 26 0
21 4 25 20 21 11 -3 20 -1 20 4 0 5 -9 9 -20 9 -14 0 -20 7 -20 21 0 16 5 20
20 16 10 -3 21 0 22 5 2 6 13 8 27 3 21 -6 22 -12 19 -61 -2 -44 0 -54 13 -54
12 0 15 7 11 25 -6 32 11 32 32 0 20 -30 65 -35 62 -8 -2 27 44 30 51 4 3 -13
13 -21 27 -21 13 0 17 3 9 8 -10 6 -53 94 -53 108 0 8 55 4 69 -5 9 -6 12 -24
10 -60 -3 -42 -1 -51 12 -51 12 0 15 7 11 25 -6 32 11 32 32 0 9 -14 24 -25
33 -25 13 0 11 6 -9 28 -21 21 -25 31 -17 45 8 13 7 22 -1 33 -10 11 -8 14 11
14 42 0 51 -13 48 -69 l-4 -51 38 0 c29 0 37 4 36 18 0 10 -3 12 -6 5 -2 -7
-13 -13 -24 -13 -14 0 -19 7 -19 26 0 21 4 25 20 21 11 -3 20 -1 20 4 0 5 -9
9 -20 9 -14 0 -20 7 -20 21 0 16 5 20 20 16 11 -3 20 -1 20 4 0 11 93 11 143
0 43 -10 58 2 25 21 -19 10 -253 13 -1188 15 -641 0 -1180 -2 -1199 -7z"/>
</g>
</svg>
