<svg width="640" height="480" xmlns="http://www.w3.org/2000/svg">
 <!-- Created with SVG-edit - http://svg-edit.googlecode.com/ -->
 <g>
  <title>Layer 1</title>
  <ellipse ry="190" rx="262" id="svg_1" cy="233" cx="328" stroke-linecap="round" stroke-linejoin="null" stroke-dasharray="null" stroke-width="5" stroke="#000000" fill="none"/>
  <rect id="svg_2" height="377.000006" width="522.000009" y="44.000007" x="66" stroke-linecap="round" stroke-linejoin="null" stroke-dasharray="null" stroke-width="8" stroke="#000000" fill="#cccccc"/>
  <path transform="rotate(112.624, 318.02, 222.051)" d="m302,232c0,-1 1.824402,-0.0979 3,-2c0.525757,-0.850647 0.69342,-1.458801 2,-2c0.923889,-0.38269 2.292908,-1.292908 3,-2c0.707092,-0.707092 1.69342,-0.458801 3,-1c0.923889,-0.38269 3,-1 4,-1c1,0 1,-1 2,-1c1,0 2.292908,0.707092 3,0c0.707092,-0.707092 1,-1 2,-1c1,0 1,-1 2,-1c1,0 2,0 3,0c1,0 1.292908,0.292908 2,1c0.707092,0.707092 0.292908,1.292908 1,2c0.707092,0.707092 0,2 0,3c0,1 -1.458801,0.693451 -2,2c-0.38269,0.923889 -1,1 -2,1c-1,0 -1,1 -2,1c-1,0 -1.292908,0.292908 -2,1c-0.707092,0.707092 -2,0 -3,0c-1,0 -2.292908,-0.707092 -3,0c-0.707092,0.707092 -1,1 -2,1c-1,0 -2,0 -3,0c-1,0 -2,0 -3,0c-1,0 -2,0 -3,0c-1,0 -1,-1 -2,-1c-1,0 -1.292908,-0.292908 -2,-1c-0.707092,-0.707092 -2,0 -3,0c-1,0 -1.292908,-0.292908 -2,-1c-0.707092,-0.707092 -1.292908,-0.292908 -2,-1c-0.707092,-0.707092 -1,-1 -2,-1c-1,0 -1.292908,-0.292908 -2,-1c-0.707092,-0.707092 -0.292908,-1.292908 -1,-2c-0.707092,-0.707092 -2,0 -2,-1c0,-1 -1,-1 -1,-2c0,-1 -1,-1 -1,-3c0,-1 -1,-1 -1,-2c0,-1 -1,-1 -1,-2c0,-1 0,-2 0,-3c0,-1 1,-1 1,-2c0,-1 1,-1 1,-2c0,-1 0.292908,-1.292908 1,-2c0.707092,-0.707092 1.292908,-0.292908 2,-1c0.707092,-0.707092 0.69342,-2.458801 2,-3c0.923889,-0.38269 1.076111,-0.61731 2,-1c1.30658,-0.541199 2.292908,-0.292908 3,-1c0.707092,-0.707092 0.69342,-1.458801 2,-2c0.923889,-0.38269 1,-1 2,-1c1,0 2.292908,-1.292908 3,-2c0.707092,-0.707092 1.292908,-0.292908 2,-1c0.707092,-0.707092 1.292908,-0.292908 2,-1c0.707092,-0.707092 0,-2 1,-2c1,0 1.69342,-0.458801 3,-1c0.923889,-0.38269 2.458801,0.306549 3,-1c0.38269,-0.923889 1,-1 2,-1c1,0 1.292908,-0.292908 2,-1c0.707092,-0.707092 2,0 3,0c1,0 2,0 3,0c1,0 2,0 3,0c1,0 3,0 4,0c1,0 2,0 4,0c1,0 2,0 3,0c1,0 3,0 4,0c1,0 2,0 3,0c1,0 2,0 3,0c1,0 2,0 3,0c1,0 1.292908,0.292908 2,1c1.414185,1.414215 3,1 4,1c1,0 1.585815,-0.414215 3,1c0.707092,0.707092 1.292908,0.292908 2,1c0.707092,0.707092 0.69342,1.458801 2,2c0.923889,0.38269 1.292908,0.292908 2,1c0.707092,0.707092 1.292908,0.292908 2,1c0.707092,0.707092 1,1 2,1c1,0 1.292908,0.292908 2,1c0.707092,0.707092 0.292908,1.292908 1,2c0.707092,0.707092 1.292908,0.292908 2,1c1.414185,1.414215 0.61731,2.076111 1,3c0.541199,1.306549 0.292908,2.292908 1,3c0.707092,0.707092 0.61731,1.076111 1,2c0.541199,1.306549 1,2 1,3c0,1 0.292908,1.292908 1,2c0.707092,0.707092 0,2 0,3c0,1 0,2 0,3c0,1 0,2 0,3c0,1 0,2 0,3c0,1 0,2 0,3c0,1 -0.458801,1.693451 -1,3c-0.38269,0.923889 -1,1 -1,2c0,1 -0.292908,1.292908 -1,2c-0.707092,0.707092 -1.292908,2.292908 -2,3c-0.707092,0.707092 0.707092,2.292908 0,3c-0.707092,0.707092 -1.292908,0.292908 -2,1c-0.707092,0.707092 -0.61731,2.076111 -1,3c-0.541199,1.30658 -1.61731,1.076111 -2,2c-0.541199,1.30658 -2,1 -2,2c0,1 -1,2 -2,3c-1,1 -1.292908,2.292908 -2,3c-0.707092,0.707092 -2.292908,0.292908 -3,1c-0.707092,0.707092 -0.474243,1.149353 -1,2c-1.175598,1.9021 -3.076111,1.61731 -4,2c-2.613098,1.082397 -3.076111,2.61731 -4,3c-1.30658,0.541199 -1,2 -2,2c-1,0 -1.076111,0.61731 -2,1c-1.30658,0.541199 -2,1 -3,2c-1,1 -1.69342,1.458801 -3,2c-0.923889,0.38269 -2,1 -3,1c-1,0 -2,0 -2,1c0,1 -1,1 -2,1c-2,0 -3,1 -5,1c-1,0 -2,0 -4,0c-1,0 -2,0 -3,0c-1,0 -1.69342,-0.458801 -3,-1c-0.923889,-0.38269 -1,-1 -4,-1c-1,0 -1,-1 -2,-1c-1,0 -1.292908,-0.292908 -2,-1c-0.707092,-0.707092 -1.69342,-0.458801 -3,-1c-1.847778,-0.765381 -2.69342,-0.458801 -4,-1c-0.923889,-0.38269 -2.292908,-0.292908 -3,-1c-0.707092,-0.707092 -1.82373,-0.486267 -4,-1c-0.973267,-0.229736 -1,-1 -2,-1c-1,0 -1.69342,-0.458801 -3,-1c-0.923889,-0.38269 -1.0979,-0.824402 -3,-2c-0.850647,-0.525757 -1.69342,-0.458801 -3,-1c-1.847778,-0.765381 -2,-1 -3,-1c-1,0 -2.292908,-1.292908 -3,-2c-0.707092,-0.707092 -1.149353,-0.474243 -2,-1c-1.9021,-1.175598 -2.292908,-1.292908 -3,-2c-0.707092,-0.707092 -1.292908,-1.292908 -2,-2c-0.707092,-0.707092 -2,-1 -3,-2c-1,-1 -1.458801,-1.69342 -2,-3c-0.38269,-0.923889 -1.292908,-1.292908 -2,-2c-1.414185,-1.414185 -1,-2 -1,-3c0,-1 0.414185,-1.585785 -1,-3c-0.707092,-0.707092 -2,-1 -2,-2c0,-1 -1.458801,-1.693451 -2,-3c-0.38269,-0.923889 -0.292908,-2.292908 -1,-3c-0.707092,-0.707092 -1,-1 -1,-2c0,-1 -1.458801,-2.693451 -2,-4c-0.38269,-0.923889 -1,-3 -1,-4c0,-1 -1,-3 -1,-4c0,-1 -0.292908,-1.292908 -1,-2c-0.707092,-0.707092 -1,-2 -1,-3c0,-2 -0.458801,-2.693451 -1,-4c-0.38269,-0.923889 -0.292908,-1.292908 -1,-2c-0.707092,-0.707092 -0.458801,-1.693451 -1,-3c-0.38269,-0.923889 -0.458801,-1.693451 -1,-3c-0.38269,-0.923889 0,-2 0,-3c0,-1 -2,-1 -2,-2c0,-1 0,-2 0,-3c0,-1 0,-2 0,-3c0,-1 0,-2 0,-3c0,-1 0,-2 0,-3c0,-1 0,-2 0,-3c0,-1 0.292908,-1.292908 1,-2c0.707092,-0.707092 0.458801,-1.693451 1,-3c0.38269,-0.923889 0,-2 1,-3c1,-1 0.61731,-2.076111 1,-3c0.541199,-1.306549 1,-2 2,-2c1,0 1.292908,-2.292908 2,-3c0.707092,-0.707092 1.149353,-0.474274 2,-1c1.9021,-1.175568 1.292908,-2.292908 2,-3c0.707092,-0.707092 1.69342,-1.458801 3,-2c0.923889,-0.38269 2.824402,-0.0979 4,-2c0.525757,-0.850647 1,-1 2,-1c1,0 1.69342,-1.458801 3,-2c0.923889,-0.38269 1.415283,-0.188751 2,-1c1.848999,-2.565369 4,-2 5,-2c2,0 3.292908,-0.292908 4,-1c0.707092,-0.707092 1,-1 2,-1c1,0 1.292908,-0.292908 2,-1c0.707092,-0.707092 2.012939,0.160187 3,0c3.12146,-0.506531 4,-1 5,-1c1,0 3,-1 4,-1c1,0 2,0 3,0c1,0 4.292908,0.707092 5,0c0.707092,-0.707092 1,-1 2,-1c1,0 4,0 5,0c1,0 2,0 4,0c1,0 2,-1 3,-1c1,0 3,0 4,0c1,0 2,0 4,0c1,0 2,0 4,0c1,0 3,0 4,0c1,0 3,0 4,0c1,0 2,0 3,0c2,0 3,0 4,0c2,0 3.292908,0.292908 4,1c0.707092,0.707092 2,0 3,0c1,0 1,1 2,1c1,0 2,1 3,1c1,0 0.69342,1.458801 2,2c1.847778,0.765381 3,1 4,1c1,0 1.69342,1.458801 3,2c0.923889,0.38269 1.292908,0.292908 2,1c0.707092,0.707092 3.151001,-1.565369 5,1c0.584717,0.811249 0.292908,1.292908 1,2c0.707092,0.707092 3.076111,0.61731 4,1c1.30658,0.541199 2.186035,1.692535 4,3c1.147278,0.826904 2.076111,1.61731 3,2c2.613098,1.082397 1.69342,3.458801 3,4c0.923889,0.38269 1,1 2,2c1,1 1.292908,1.292908 2,2c0.707092,0.707092 -0.565369,2.15097 2,4c0.811218,0.584717 1,1 2,2c1,1 1.292908,2.292908 2,3c0.707092,0.707092 1.292908,0.292908 2,1c0.707092,0.707092 1,1 1,3c0,1 0.61731,1.076111 1,2c1.082397,2.613129 2.292908,2.292908 3,3c1.414185,1.414215 0.292908,2.292908 1,3c0.707092,0.707092 1.486267,0.823761 2,3c0.229736,0.973236 0.61731,2.076111 1,3c0.541199,1.306549 1.458801,1.693451 2,3c0.38269,0.923889 0.486267,1.823761 1,4c0.229736,0.973236 -0.307434,2.186005 1,4c0.826904,1.147278 0.292908,2.292908 1,3c0.707092,0.707092 1,1 1,2c0,1 0.292908,2.292908 1,3c0.707092,0.707092 1,1 1,2c0,1 0.292908,1.292908 1,2c0.707092,0.707092 -0.160156,2.012909 0,3c0.506531,3.121429 2,3 2,4c0,1 -0.707092,2.292908 0,3c0.707092,0.707092 1,4 1,5c0,1 0,2 0,3c0,1 1,4 1,5c0,1 0,2 0,3c0,3 0,4 0,5c0,1 0,2 0,6c0,1 0.160156,3.012939 0,4c-0.506531,3.12146 -1.458801,3.69342 -2,5c-0.38269,0.923889 -1.496216,0.907776 -2,5c-0.122192,0.992493 -1.458801,1.69342 -2,3c-0.38269,0.923889 -1.61731,3.076111 -2,4c-0.541199,1.30658 -1.458801,1.69342 -2,3c-0.38269,0.923889 -1.61731,3.076111 -2,4c-0.541199,1.30658 -1.292908,1.292908 -2,2c-0.707092,0.707092 0,2 -3,5c-1,1 -1.292908,2.292908 -2,3c-0.707092,0.707092 -3.292908,3.292908 -4,4c-0.707092,0.707092 -2,1 -3,2c-1,1 -3.076111,1.61731 -4,2c-1.30658,0.541199 -2.026733,1.770264 -3,2c-4.352478,1.027466 -4.292908,2.292908 -5,3c-0.707092,0.707092 -2.292908,-0.707092 -3,0c-0.707092,0.707092 -6.076111,2.61731 -7,3c-1.30658,0.541199 -2.076111,0.61731 -3,1c-1.30658,0.541199 -1.647522,1.972534 -6,3c-0.973267,0.229736 -2.292908,-0.707092 -3,0c-0.707092,0.707092 -0.292908,1.292908 -1,2c-1.414185,1.414185 -2.69342,0.458801 -4,1c-0.923889,0.38269 -2,0 -3,0c-1,0 -1.076111,0.61731 -2,1c-1.30658,0.541199 -2.018066,0.810913 -3,1c-5.288025,1.018372 -7.458801,1.69342 -8,3c-0.38269,0.923889 -2.007507,0.877808 -3,1c-4.092224,0.503784 -4.82373,1.486267 -7,2c-0.973267,0.229736 -1.87854,0.493469 -5,1c-0.987061,0.160156 -2,0 -3,0c-1,0 -3,0 -5,0c-2,0 -3,0 -5,0c-1,0 -2,0 -3,0c-1,0 -3.076111,0.38269 -4,0c-1.30658,-0.541199 -2.026733,-0.770264 -3,-1c-2.17627,-0.513733 -3.076111,-0.61731 -4,-1c-1.30658,-0.541199 -1.82373,-1.486267 -4,-2c-0.973267,-0.229736 -2,-1 -3,-1c-1,0 -3,-2 -4,-2c-1,0 -2.152222,-0.234619 -4,-1c-1.30658,-0.541199 -1.69342,-1.458801 -3,-2c-0.923889,-0.38269 -3.292908,-0.292908 -4,-1c-0.707092,-0.707092 -1,-1 -2,-1c-1,0 -3.292908,-2.292908 -4,-3c-0.707092,-0.707092 -1.415283,-0.188782 -2,-1c-1.848999,-2.565369 -4.292908,-1.292908 -5,-2c-0.707092,-0.707092 -0.705444,-1.346191 -3,-3c-1.813965,-1.307434 -2.61731,-1.076111 -3,-2c-0.541199,-1.30658 -1.292908,-1.292908 -2,-2c-0.707092,-0.707092 -0.69342,-1.458801 -2,-2c-0.923889,-0.38269 -1.292908,-0.292908 -2,-1c-0.707092,-0.707092 -2,-3 -3,-4c-1,-1 -1.61731,-2.076111 -2,-3c-0.541199,-1.30658 -2.824402,-3.0979 -4,-5c-0.525757,-0.850647 0.289795,-2.042908 0,-3c-1.044861,-3.450867 -3,-4 -3,-5c0,-1 -0.42041,-2.085815 -1,-4c-1.044861,-3.450867 -2.292908,-3.292908 -3,-4c-0.707092,-0.707092 -0.303223,-1.769348 -1,-3c-2.031433,-3.587952 -2,-4 -2,-5c0,-1 -0.292908,-1.292908 -1,-2c-2.121338,-2.121338 -0.076111,-4.61731 -1,-5c-1.30658,-0.541199 0.148071,-2.228333 -1,-5c-0.541199,-1.30658 -1.486267,-1.82373 -2,-4c-0.459534,-1.946472 -1,-2 -1,-3c0,-1 -1,-3 -1,-4c0,-1 -0.486267,-1.823761 -1,-4c-0.229736,-0.973236 0,-2 -1,-3c-1,-1 -0.292908,-3.292908 -1,-4c-0.707092,-0.707092 -1,-1 -1,-2c0,-1 0.707092,-2.292908 0,-3c-0.707092,-0.707092 -1.458801,-0.693451 -2,-2c-0.38269,-0.923889 -0.458801,-1.693451 -1,-3c-0.38269,-0.923889 -0.292908,-1.292908 -1,-2c-0.707092,-0.707092 0,-2 0,-3c0,-1 -0.458801,-1.693451 -1,-3c-0.38269,-0.923889 -1,-2 -1,-4c0,-1 -0.770264,-1.026764 -1,-2c-0.513733,-2.176239 -0.292908,-3.292908 -1,-4c-0.707092,-0.707092 -1,-1 -1,-2c0,-1 -1,-1 -1,-3c0,-1 -0.292908,-1.292908 -1,-2c-1.414185,-1.414215 -0.292908,-2.292908 -1,-3c-1.414185,-1.414215 -1,-2 -1,-3c0,-1 0.38269,-2.076111 0,-3c-0.541199,-1.306549 -1,-2 -1,-3c0,-1 0,-2 0,-3c0,-1 0,-2 0,-3c0,-1 0,-2 0,-3c0,-1 0,-2 0,-3c0,-1 -0.30658,-2.458801 1,-3c0.923889,-0.38269 0.292908,-1.292908 1,-2c0.707092,-0.707092 0.770264,-1.026764 1,-2c0.513733,-2.176239 1.61731,-3.076111 2,-4c0.541199,-1.306549 1.173096,-1.852722 2,-3c1.307434,-1.813995 2,-3 3,-4c1,-1 1,-2 2,-3c1,-1 1.412048,-0.968536 5,-3c1.230652,-0.696777 1.415283,-2.188751 2,-3c1.848999,-2.565369 3,-2 4,-2c1,0 1.69342,-2.458801 3,-3c0.923889,-0.38269 1.149353,-0.474274 2,-1c1.9021,-1.175568 2.292908,-1.292908 3,-2c0.707092,-0.707092 0.852722,-1.173096 2,-2c1.813965,-1.307465 3.042908,-1.710205 4,-2c3.450867,-1.04483 4,-3 5,-3c1,0 1.026733,-0.770233 2,-1c4.352478,-1.027496 7,-4 8,-4c1,0 2.69342,-1.458801 4,-2c2.771667,-1.148041 3.69342,-0.458801 5,-1c1.847778,-0.765381 3,0 4,0c1,0 3,-1 4,-1c1,0 2,0 3,0c1,0 2.292908,0.707092 3,0c0.707092,-0.707092 1,-1 4,-1c1,0 3,0 6,0c1,0 2,0 3,0c1,0 4,-1 5,-1c1,0 2,0 3,0c3,0 4,0 6,0c3,0 4,0 5,0c2,0 5,0 6,0c1,0 2,0 3,0c1,0 4,0 5,0c1,0 2,0 3,0c2,0 4,0 5,0c1,0 2.012939,-0.160187 3,0c3.12146,0.506531 4.076111,0.61731 5,1c1.30658,0.541199 4.292908,1.292908 5,2c0.707092,0.707092 1.026733,0.770233 2,1c2.17627,0.513733 2.82373,2.486267 5,3c0.973267,0.229767 1.07843,0.789856 4,2c2.065857,0.855713 2.292908,1.292908 3,2c0.707092,0.707092 1.528137,0.118317 2,1c1.701294,3.178925 4.458801,1.693451 5,3c0.38269,0.923889 1.149353,0.474274 2,1c1.9021,1.175568 2.292908,1.292908 3,2c1.414185,1.414215 0.292908,3.292908 1,4c0.707092,0.707092 0.292908,1.292908 1,2c0.707092,0.707092 0.692566,1.186005 2,3c0.826904,1.147278 1,2 1,3c0,1 2,3 2,4c0,1 0.61731,3.076111 1,4c0.541199,1.306549 1.486267,1.823761 2,4c0.229736,0.973236 0.292908,3.292908 1,4c0.707092,0.707092 1,2 1,3c0,1 0.292908,1.292908 1,2c0.707092,0.707092 0.61731,1.076111 1,2c0.541199,1.306549 0.292908,2.292908 1,3c0.707092,0.707092 1.292908,0.292908 2,1c0.707092,0.707092 2,0 3,0c1,0 1,1 2,1c1,0 2,0 3,0c1,0 1,1 1,2c0,1 0.292908,1.292908 1,2c0.707092,0.707092 0.292908,1.292908 1,2c0.707092,0.707092 0.292908,1.292908 1,2c0.707092,0.707092 1.458801,0.693451 2,2c0.38269,0.923889 0.292908,1.292908 1,2c0.707092,0.707092 0.292908,1.292908 1,2c0.707092,0.707092 0,2 0,3c0,1 0.292908,1.292908 1,2c0.707092,0.707092 1.292908,0.292908 2,1c0.707092,0.707092 0,2 0,3l1,0" id="svg_3" stroke-linecap="round" stroke-linejoin="null" stroke-dasharray="null" stroke-width="5" stroke="#000000" fill="#9e4f06"/>
  <path d="m255.000015,171.094482c0.999985,0 2.292892,-0.931656 2.999985,0c0.707092,0.931656 1,1.317596 2,1.317596c1,0 2,0 2,1.317581c0,1.317581 0,2.635162 0,3.952759c0,1.317581 -1,1.317581 -2,1.317581c-1,0 -3,-1.317581 -4,-1.317581c-0.999985,0 -1.292908,-0.385941 -2,-1.317596c-0.707092,-0.931656 -1.69342,-0.604507 -3,-1.317581c-0.923889,-0.504227 -2,0 -3,0c-1,0 -1,-1.317581 0,-1.317581c1,0 1.292908,-0.385925 2,-1.317581c0.707092,-0.931656 2,0 3.000015,0c0.999985,0 2,0 2.999985,0l1,0l1,0l1,0" id="svg_4" stroke-linecap="round" stroke-linejoin="null" stroke-dasharray="null" stroke="#000000" fill="#ffffff"/>
  <path d="m301,150c-1,0 -1.69342,-0.458801 -3,-1c-0.923889,-0.38269 -1.076111,-0.61731 -2,-1c-1.30658,-0.541199 -1,0 -1,1c0,1 0.30658,2.458801 -1,3c-0.923889,0.38269 -0.707092,0.292908 0,1c0.707092,0.707092 2,0 3,0l1,0" id="svg_7" stroke-linecap="round" stroke-linejoin="null" stroke-dasharray="null" stroke="#000000" fill="#ffffff"/>
  <path id="svg_8" d="m324.375,237.254639c1,0 2.292908,-0.931656 3,0c0.707092,0.931656 1,1.317596 2,1.317596c1,0 2,0 2,1.317581c0,1.317581 0,2.635162 0,3.952759c0,1.317581 -1,1.317581 -2,1.317581c-1,0 -3,-1.317581 -4,-1.317581c-1,0 -1.292908,-0.385941 -2,-1.317596c-0.707092,-0.931656 -1.69342,-0.604507 -3,-1.317581c-0.923889,-0.504227 -2,0 -3,0c-1,0 -1,-1.317581 0,-1.317581c1,0 1.292908,-0.385925 2,-1.317581c0.707092,-0.931656 2,0 3,0c1,0 2,0 3,0l1,0l1,0l1,0" stroke-linecap="round" stroke-linejoin="null" stroke-dasharray="null" stroke="#000000" fill="#ffffff"/>
  <path id="svg_9" d="m285.806641,230.451172c-1,0 -1.69342,-0.458801 -3,-1c-0.923889,-0.38269 -1.076111,-0.61731 -2,-1c-1.30658,-0.541199 -1,0 -1,1c0,1 0.30658,2.458801 -1,3c-0.923889,0.38269 -0.707092,0.292908 0,1c0.707092,0.707092 2,0 3,0l1,0" stroke-linecap="round" stroke-linejoin="null" stroke-dasharray="null" stroke="#000000" fill="#ffffff"/>
  <path id="svg_10" d="m296.807159,208.452942c-1.262695,0 -2.138275,-0.87384 -3.788116,-1.904602c-1.166595,-0.728867 -1.358795,-1.17572 -2.525391,-1.904587c-1.649811,-1.030762 -1.262695,0 -1.262695,1.904587c0,1.904602 0.387115,4.683029 -1.262695,5.713791c-1.166595,0.728867 -0.892853,0.557861 0,1.904587c0.892853,1.346725 2.525391,0 3.788086,0l1.262695,0" stroke-linecap="round" stroke-linejoin="null" stroke-dasharray="null" stroke="#000000" fill="#ffffff"/>
  <path id="svg_11" d="m314.806641,180.853287c-1,0 -1.69342,-0.956833 -3,-2.08551c-0.923889,-0.798111 -1.076111,-1.287415 -2,-2.08551c-1.30658,-1.128677 -1,0 -1,2.08551c0,2.08551 0.30658,5.127853 -1,6.256531c-0.923889,0.798111 -0.707092,0.61087 0,2.085526c0.707092,1.47464 2,0 3,0l1,0" stroke-linecap="round" stroke-linejoin="null" stroke-dasharray="null" stroke="#000000" fill="#ffffff"/>
  <path id="svg_12" d="m243.807678,207.054352c-1.525391,0 -2.58316,-1.205856 -4.576202,-2.628265c-1.409302,-1.005829 -1.64151,-1.622467 -3.050781,-2.628265c-1.993073,-1.422424 -1.525421,0 -1.525421,2.628265c0,2.628265 0.467682,6.462372 -1.525391,7.884796c-1.409302,1.005814 -1.078583,0.769852 0,2.628281c1.078613,1.858414 3.050812,0 4.576202,0l1.525391,0" stroke-linecap="round" stroke-linejoin="null" stroke-dasharray="null" stroke="#000000" fill="#ffffff"/>
  <path id="svg_13" d="m233.806641,241.655777c-1,0 -1.69342,-1.537888 -3,-3.351944c-0.923889,-1.282761 -1.076111,-2.069199 -2,-3.351944c-1.30658,-1.814072 -1,0 -1,3.351944c0,3.351944 0.30658,8.24176 -1,10.055832c-0.923889,1.282745 -0.707092,0.981812 0,3.351944c0.707092,2.370132 2,0 3,0l1,0" stroke-linecap="round" stroke-linejoin="null" stroke-dasharray="null" stroke="#000000" fill="#ffffff"/>
  <path id="svg_14" d="m365.812897,187.451675c-2.051056,0 -3.473328,-0.874008 -6.153198,-1.904968c-1.894989,-0.729019 -2.207184,-1.175949 -4.102142,-1.904968c-2.679901,-1.030975 -2.051086,0 -2.051086,1.904968c0,1.904968 0.628815,4.683945 -2.051056,5.714905c-1.894958,0.729019 -1.450287,0.557983 0,1.904984c1.450287,1.346985 4.102142,0 6.153198,0l2.051086,0" stroke-linecap="round" stroke-linejoin="null" stroke-dasharray="null" stroke="#000000" fill="#ffffff"/>
  <path id="svg_15" d="m249.806641,253.855072c-1,0 -1.69342,-1.371872 -3,-2.990112c-0.923889,-1.144287 -1.076111,-1.845825 -2,-2.990097c-1.30658,-1.618256 -1,0 -1,2.990097c0,2.990112 0.30658,7.352081 -1,8.970306c-0.923889,1.144287 -0.707092,0.875854 0,2.990112c0.707092,2.114288 2,0 3,0l1,0" stroke-linecap="round" stroke-linejoin="null" stroke-dasharray="null" stroke="#000000" fill="#ffffff"/>
  <path id="svg_16" d="m372.808441,226.454712c-1.919464,0 -3.250427,-1.288864 -5.758331,-2.809189c-1.773376,-1.075043 -2.065552,-1.734131 -3.838898,-2.809189c-2.507904,-1.520325 -1.919464,0 -1.919464,2.809189c0,2.809189 0.58847,6.907227 -1.919434,8.427567c-1.773346,1.075043 -1.357239,0.82283 0,2.809189c1.357208,1.986343 3.838898,0 5.758331,0l1.919464,0" stroke-linecap="round" stroke-linejoin="null" stroke-dasharray="null" stroke="#000000" fill="#ffffff"/>
  <path id="svg_17" d="m346.807922,148.452942c-1.656738,0 -2.805573,-0.873825 -4.970245,-1.904587c-1.53064,-0.728882 -1.782837,-1.175735 -3.313477,-1.904602c-2.164673,-1.030762 -1.656769,0 -1.656769,1.904602c0,1.904587 0.507935,4.683014 -1.656738,5.713776c-1.53064,0.728867 -1.171478,0.557861 0,1.904587c1.171478,1.346725 3.313507,0 4.970245,0l1.656738,0" stroke-linecap="round" stroke-linejoin="null" stroke-dasharray="null" stroke="#000000" fill="#ffffff"/>
  <path id="svg_18" d="m299.808167,287.653198c-1.788086,0 -3.027985,-1.122986 -5.364288,-2.447601c-1.651978,-0.936646 -1.924164,-1.510925 -3.576172,-2.447571c-2.336304,-1.324646 -1.788116,0 -1.788116,2.447571c0,2.447601 0.548218,6.018158 -1.788086,7.342773c-1.652008,0.936676 -1.264343,0.716919 0,2.447601c1.264343,1.730682 3.576202,0 5.364288,0l1.788086,0" stroke-linecap="round" stroke-linejoin="null" stroke-dasharray="null" stroke="#000000" fill="#ffffff"/>
  <path id="svg_19" d="m333.806641,216.451172c-1,0 -1.69342,-0.458801 -3,-1c-0.923889,-0.38269 -1.076111,-0.61731 -2,-1c-1.30658,-0.541199 -1,0 -1,1c0,1 0.30658,2.458801 -1,3c-0.923889,0.38269 -0.707092,0.292908 0,1c0.707092,0.707092 2,0 3,0l1,0" stroke-linecap="round" stroke-linejoin="null" stroke-dasharray="null" stroke="#000000" fill="#ffffff"/>
  <path id="svg_20" d="m304.806641,257.451172c-1,0 -1.69342,-0.458801 -3,-1c-0.923889,-0.38269 -1.076111,-0.61731 -2,-1c-1.30658,-0.541199 -1,0 -1,1c0,1 0.30658,2.458801 -1,3c-0.923889,0.38269 -0.707092,0.292908 0,1c0.707092,0.707092 2,0 3,0l1,0" stroke-linecap="round" stroke-linejoin="null" stroke-dasharray="null" stroke="#000000" fill="#ffffff"/>
  <path id="svg_21" d="m356.806641,270.451172c-1,0 -1.69342,-0.458801 -3,-1c-0.923889,-0.38269 -1.076111,-0.61731 -2,-1c-1.30658,-0.541199 -1,0 -1,1c0,1 0.30658,2.458801 -1,3c-0.923889,0.38269 -0.707092,0.292908 0,1c0.707092,0.707092 2,0 3,0l1,0" stroke-linecap="round" stroke-linejoin="null" stroke-dasharray="null" stroke="#000000" fill="#ffffff"/>
  <path id="svg_22" d="m404.807404,257.452942c-1.394043,0 -2.360687,-0.87384 -4.182129,-1.904602c-1.287964,-0.728867 -1.500153,-1.17572 -2.788086,-1.904587c-1.821442,-1.030762 -1.394073,0 -1.394073,1.904587c0,1.904602 0.427399,4.683014 -1.394043,5.713776c-1.287933,0.728882 -0.985718,0.557892 0,1.904602c0.985718,1.346741 2.788116,0 4.182159,0l1.394043,0" stroke-linecap="round" stroke-linejoin="null" stroke-dasharray="null" stroke="#000000" fill="#ffffff"/>
  <path id="svg_23" d="m323.806641,211.451172c-1,0 -1.69342,-0.458801 -3,-1c-0.923889,-0.38269 -1.076111,-0.61731 -2,-1c-1.30658,-0.541199 -1,0 -1,1c0,1 0.30658,2.458801 -1,3c-0.923889,0.38269 -0.707092,0.292908 0,1c0.707092,0.707092 2,0 3,0l1,0" stroke-linecap="round" stroke-linejoin="null" stroke-dasharray="null" stroke="#000000" fill="#ffffff"/>
  <path id="svg_24" d="m323.806641,211.451172c-1,0 -1.69342,-0.458801 -3,-1c-0.923889,-0.38269 -1.076111,-0.61731 -2,-1c-1.30658,-0.541199 -1,0 -1,1c0,1 0.30658,2.458801 -1,3c-0.923889,0.38269 -0.707092,0.292908 0,1c0.707092,0.707092 2,0 3,0l1,0" stroke-linecap="round" stroke-linejoin="null" stroke-dasharray="null" stroke="#000000" fill="#ffffff"/>
 </g>
</svg>